<svg width="16" height="16" viewBox="0 0 16 16" fill="none" xmlns="http://www.w3.org/2000/svg">
<path d="M7.87286 0.315453C3.68986 0.315453 0.298706 3.70652 0.298706 7.88952C0.298706 12.0727 3.68986 15.4635 7.87286 15.4635C12.0563 15.4635 15.4471 12.0727 15.4471 7.88952C15.4471 3.70679 12.0563 0.315814 7.87277 0.315814L7.87286 0.315453ZM11.3463 11.2394C11.2107 11.4619 10.9194 11.5325 10.6969 11.3959C8.91859 10.3097 6.67989 10.0636 4.04341 10.666C3.78935 10.7239 3.5361 10.5647 3.47822 10.3106C3.42006 10.0564 3.57861 9.80316 3.83331 9.74528C6.71851 9.08584 9.19337 9.36993 11.1899 10.59C11.4123 10.7266 11.4829 11.0169 11.3463 11.2394ZM12.2734 9.17683C12.1024 9.45495 11.7389 9.54268 11.4612 9.37174C9.42527 8.12007 6.32182 7.75765 3.91371 8.48863C3.60141 8.58296 3.27155 8.40696 3.17676 8.09519C3.0827 7.78289 3.2588 7.45366 3.57056 7.3587C6.32128 6.52407 9.74092 6.92836 12.0789 8.36508C12.3566 8.53602 12.4443 8.89952 12.2734 9.17683ZM12.353 7.0293C9.91186 5.57937 5.88433 5.44605 3.55365 6.15342C3.17939 6.26693 2.7836 6.05565 2.67018 5.68139C2.55676 5.30695 2.76786 4.91143 3.1424 4.79765C5.81786 3.98545 10.2655 4.14237 13.076 5.81082C13.4134 6.01061 13.5237 6.44538 13.3238 6.78157C13.1248 7.1182 12.6889 7.22918 12.3533 7.0293H12.353Z" fill="#182F40"/>
</svg>
