<svg width="11" height="11" viewBox="0 0 11 11" fill="none" xmlns="http://www.w3.org/2000/svg">
<path d="M5.42529 10.4742C8.13901 10.4742 10.3868 8.23117 10.3868 5.51265C10.3868 2.79893 8.13901 0.551102 5.42049 0.551102C2.70677 0.551102 0.463745 2.79893 0.463745 5.51265C0.463745 8.23117 2.71157 10.4742 5.42529 10.4742ZM5.42529 9.70571C3.35518 9.70571 1.60207 8.15432 1.28507 6.16106C1.31388 6.16586 1.3379 6.16586 1.36672 6.16586C1.88064 6.16586 2.22166 5.72878 2.22166 5.06116C2.22166 4.84983 2.26008 4.78739 2.39937 4.72015L2.70677 4.57605C2.87007 4.4944 3.01897 4.55684 3.11983 4.69613L3.69139 5.53186C4.21973 6.29554 4.75767 6.60774 5.25238 6.60774C5.72788 6.60774 6.04969 6.30515 6.04969 5.83925C6.04969 5.56548 5.9104 5.33013 5.68466 5.18124C5.54056 5.08037 5.58379 4.9651 5.71347 4.9651C6.88542 4.9651 7.50501 4.54243 7.50501 3.69229C7.50501 2.56838 6.55401 2.50594 6.55401 2.21776C6.55401 2.04485 6.77014 1.94879 6.91904 1.60297C8.48483 2.21296 9.61835 3.74513 9.61835 5.51265C9.61835 5.95453 9.5463 6.382 9.41662 6.78545C9.16686 6.57892 8.96514 6.49247 8.72979 6.49247C8.54727 6.49247 8.44641 6.5405 8.34554 6.57412C8.24468 6.60294 8.19665 6.55971 8.18224 6.47326C8.13421 6.12263 7.91327 5.98335 7.55784 5.98335H7.30808C7.0151 5.98335 6.77975 6.13704 6.60204 6.41082L6.52519 6.53089C6.40511 6.71821 6.29945 6.87191 6.19378 6.97277C6.09291 7.06403 6.01607 7.10726 5.81914 7.1697L5.5982 7.23694C5.26199 7.34261 5.16112 7.63559 5.25238 7.9622L5.48293 8.77392C5.56938 9.0717 5.74709 9.2254 6.03528 9.2254C6.16016 9.2254 6.31385 9.17737 6.47235 9.10052L6.5444 9.0669C6.65487 9.01407 6.73652 8.99486 6.81817 8.99486C7.00549 8.99486 7.13037 9.08611 7.27446 9.26863C6.71731 9.54721 6.08811 9.70571 5.42529 9.70571Z" fill="white"/>
</svg>
