<svg width="32" height="26" viewBox="0 0 32 26" fill="none" xmlns="http://www.w3.org/2000/svg">
<rect x="8.50151" y="0.588685" width="15.8479" height="15.8479" rx="7.92396" fill="#182F40"/>
<rect x="8.50151" y="0.588685" width="15.8479" height="15.8479" rx="7.92396" stroke="#182F40" stroke-width="0.54648"/>
<path d="M16.4253 13.4742C19.139 13.4742 21.3868 11.2312 21.3868 8.51265C21.3868 5.79893 19.139 3.5511 16.4205 3.5511C13.7068 3.5511 11.4637 5.79893 11.4637 8.51265C11.4637 11.2312 13.7116 13.4742 16.4253 13.4742ZM16.4253 12.7057C14.3552 12.7057 12.6021 11.1543 12.2851 9.16106C12.3139 9.16586 12.3379 9.16586 12.3667 9.16586C12.8806 9.16586 13.2217 8.72878 13.2217 8.06116C13.2217 7.84983 13.2601 7.78739 13.3994 7.72015L13.7068 7.57605C13.8701 7.4944 14.019 7.55684 14.1198 7.69613L14.6914 8.53186C15.2197 9.29554 15.7577 9.60774 16.2524 9.60774C16.7279 9.60774 17.0497 9.30515 17.0497 8.83925C17.0497 8.56548 16.9104 8.33013 16.6847 8.18124C16.5406 8.08037 16.5838 7.9651 16.7135 7.9651C17.8854 7.9651 18.505 7.54243 18.505 6.69229C18.505 5.56838 17.554 5.50594 17.554 5.21776C17.554 5.04485 17.7701 4.94879 17.919 4.60297C19.4848 5.21296 20.6183 6.74513 20.6183 8.51265C20.6183 8.95453 20.5463 9.382 20.4166 9.78545C20.1669 9.57892 19.9651 9.49247 19.7298 9.49247C19.5473 9.49247 19.4464 9.5405 19.3455 9.57412C19.2447 9.60294 19.1966 9.55971 19.1822 9.47326C19.1342 9.12263 18.9133 8.98335 18.5578 8.98335H18.3081C18.0151 8.98335 17.7797 9.13704 17.602 9.41082L17.5252 9.53089C17.4051 9.71821 17.2994 9.87191 17.1938 9.97277C17.0929 10.064 17.0161 10.1073 16.8191 10.1697L16.5982 10.2369C16.262 10.3426 16.1611 10.6356 16.2524 10.9622L16.4829 11.7739C16.5694 12.0717 16.7471 12.2254 17.0353 12.2254C17.1602 12.2254 17.3139 12.1774 17.4724 12.1005L17.5444 12.0669C17.6549 12.0141 17.7365 11.9949 17.8182 11.9949C18.0055 11.9949 18.1304 12.0861 18.2745 12.2686C17.7173 12.5472 17.0881 12.7057 16.4253 12.7057Z" fill="white"/>
<path d="M5.61392 23.8028L4.51165 19.8284H5.14235L5.91666 22.9062H5.95353L6.75889 19.8284H7.38377L8.18913 22.9082H8.226L8.99837 19.8284H9.63101L8.5268 23.8028H7.92326L7.08685 20.8259H7.0558L6.2194 23.8028H5.61392ZM10.1778 23.8028V19.8284H12.6695V20.3446H10.7774V21.5556H12.5395V22.0698H10.7774V23.2866H12.6928V23.8028H10.1778ZM13.4705 23.8028V19.8284H14.926C15.208 19.8284 15.4416 19.875 15.6266 19.9681C15.8116 20.06 15.95 20.1848 16.0419 20.3427C16.1337 20.4992 16.1797 20.6758 16.1797 20.8725C16.1797 21.0381 16.1492 21.1778 16.0884 21.2916C16.0276 21.4042 15.9461 21.4948 15.8439 21.5633C15.743 21.6306 15.6317 21.6798 15.5101 21.7108V21.7496C15.6421 21.7561 15.7708 21.7988 15.8963 21.8777C16.0231 21.9553 16.1279 22.0659 16.2107 22.2096C16.2935 22.3532 16.3349 22.5278 16.3349 22.7335C16.3349 22.9366 16.287 23.1191 16.1913 23.2808C16.0969 23.4412 15.9507 23.5686 15.7527 23.6631C15.5548 23.7562 15.3018 23.8028 14.9939 23.8028H13.4705ZM14.0702 23.2885H14.9357C15.2229 23.2885 15.4286 23.2329 15.5528 23.1216C15.677 23.0104 15.7391 22.8713 15.7391 22.7044C15.7391 22.5789 15.7074 22.4638 15.644 22.359C15.5806 22.2542 15.4901 22.1707 15.3724 22.1086C15.2559 22.0465 15.1175 22.0155 14.9571 22.0155H14.0702V23.2885ZM14.0702 21.5478H14.8736C15.0082 21.5478 15.1291 21.5219 15.2365 21.4702C15.3452 21.4184 15.4312 21.346 15.4946 21.2528C15.5593 21.1584 15.5916 21.0471 15.5916 20.919C15.5916 20.7547 15.5341 20.6169 15.4189 20.5057C15.3038 20.3944 15.1272 20.3388 14.8891 20.3388H14.0702V21.5478ZM19.2138 20.8725C19.1931 20.6887 19.1077 20.5464 18.9577 20.4455C18.8076 20.3433 18.6187 20.2922 18.391 20.2922C18.228 20.2922 18.087 20.3181 17.9679 20.3698C17.8489 20.4203 17.7564 20.4902 17.6904 20.5794C17.6257 20.6674 17.5934 20.7677 17.5934 20.8802C17.5934 20.9747 17.6154 21.0562 17.6594 21.1247C17.7047 21.1933 17.7635 21.2509 17.836 21.2975C17.9097 21.3427 17.9886 21.3809 18.0727 21.412C18.1568 21.4417 18.2377 21.4663 18.3153 21.4857L18.7034 21.5866C18.8302 21.6177 18.9602 21.6597 19.0935 21.7128C19.2268 21.7658 19.3503 21.8357 19.4642 21.9223C19.578 22.009 19.6699 22.1164 19.7397 22.2445C19.8109 22.3726 19.8465 22.5259 19.8465 22.7044C19.8465 22.9295 19.7882 23.1294 19.6718 23.3041C19.5567 23.4787 19.3891 23.6165 19.1692 23.7174C18.9505 23.8183 18.686 23.8688 18.3755 23.8688C18.0779 23.8688 17.8204 23.8216 17.6031 23.7271C17.3857 23.6327 17.2156 23.4988 17.0927 23.3254C16.9698 23.1508 16.9019 22.9438 16.8889 22.7044H17.4905C17.5022 22.848 17.5488 22.9677 17.6303 23.0634C17.7131 23.1579 17.8185 23.2284 17.9466 23.275C18.076 23.3202 18.2176 23.3429 18.3716 23.3429C18.5411 23.3429 18.6918 23.3164 18.8238 23.2633C18.957 23.209 19.0618 23.1339 19.1381 23.0382C19.2145 22.9412 19.2526 22.828 19.2526 22.6986C19.2526 22.5809 19.219 22.4845 19.1517 22.4094C19.0857 22.3344 18.9958 22.2723 18.882 22.2231C18.7694 22.174 18.642 22.1306 18.4997 22.0931L18.03 21.965C17.7118 21.8784 17.4595 21.7509 17.2732 21.5827C17.0882 21.4145 16.9957 21.192 16.9957 20.9152C16.9957 20.6862 17.0578 20.4863 17.182 20.3155C17.3062 20.1447 17.4744 20.0121 17.6865 19.9177C17.8987 19.8219 18.1381 19.7741 18.4046 19.7741C18.6737 19.7741 18.9111 19.8213 19.1168 19.9157C19.3238 20.0102 19.4868 20.1402 19.6058 20.3058C19.7248 20.4701 19.7869 20.659 19.7921 20.8725H19.2138ZM21.1627 19.8284V23.8028H20.563V19.8284H21.1627ZM21.84 20.3446V19.8284H24.9159V20.3446H23.6758V23.8028H23.0781V20.3446H21.84ZM25.5956 23.8028V19.8284H28.0873V20.3446H26.1952V21.5556H27.9573V22.0698H26.1952V23.2866H28.1106V23.8028H25.5956Z" fill="#182F40"/>
</svg>
