<svg width="16" height="16" viewBox="0 0 16 16" fill="none" xmlns="http://www.w3.org/2000/svg">
<g clip-path="url(#clip0_35_151)">
<path d="M15.0415 4.23156C14.9556 3.9083 14.7863 3.61327 14.5506 3.376C14.3148 3.13873 14.0209 2.96754 13.6982 2.87956C12.5102 2.56013 7.76183 2.56013 7.76183 2.56013C7.76183 2.56013 3.01345 2.56013 1.8255 2.87956C1.50279 2.96754 1.20886 3.13873 0.973101 3.376C0.737346 3.61327 0.568044 3.9083 0.482138 4.23156C0.164429 5.42469 0.164429 7.91284 0.164429 7.91284C0.164429 7.91284 0.164429 10.401 0.482138 11.5941C0.568044 11.9174 0.737346 12.2124 0.973101 12.4497C1.20886 12.687 1.50279 12.8581 1.8255 12.9461C3.01345 13.2656 7.76183 13.2656 7.76183 13.2656C7.76183 13.2656 12.5102 13.2656 13.6982 12.9461C14.0209 12.8581 14.3148 12.687 14.5506 12.4497C14.7863 12.2124 14.9556 11.9174 15.0415 11.5941C15.3592 10.401 15.3592 7.91284 15.3592 7.91284C15.3592 7.91284 15.3592 5.42469 15.0415 4.23156Z" fill="#182F40"/>
<path d="M6.20789 10.1722V5.6535L10.1793 7.91287L6.20789 10.1722Z" fill="#FEFEFE"/>
</g>
<defs>
<clipPath id="clip0_35_151">
<rect width="15.1948" height="15.1948" fill="white" transform="translate(0.149414 0.315445)"/>
</clipPath>
</defs>
</svg>
